<?xml version="1.0" encoding="utf-8"?>
<!-- Generator: Adobe Illustrator 27.6.1, SVG Export Plug-In . SVG Version: 6.00 Build 0)  -->
<svg version="1.1" id="Layer_1" xmlns="http://www.w3.org/2000/svg" xmlns:xlink="http://www.w3.org/1999/xlink" x="0px" y="0px"
	 viewBox="0 0 700.37 120.7" style="enable-background:new 0 0 700.37 120.7;" xml:space="preserve">
<style type="text/css">
	.st0{fill:#69A5D9;}
	.st1{fill:#FFFFFF;}
</style>
<g>
	<path class="st0" d="M222.51,52.84c-6.62,3.05-12.73,5.87-19.21,8.86c-5.36-11.53-10.5-22.58-15.97-34.34
		c-6.75,14.86-13.24,29.15-19.89,43.78c20.62,1.5,39.57-1.43,57.11-11.96c14.76-8.86,26.24-21.14,37.06-34.15
		c21.92-26.35,58.62-32.78,87.25-15.04c3.1,1.92,5.88,4.33,9.16,6.77c-4.81,5.52-9.33,10.71-13.57,15.58
		c-6.09-3.25-11.51-7.18-17.57-9.18c-17.28-5.69-32.44-1.74-44.94,11.77c-6.85,7.39-13.66,14.83-20.8,21.93
		c-14.32,14.23-30.67,25.51-50.48,30.38c-9.43,2.32-19.33,2.92-29.06,3.73c-6.49,0.54-13.07,0.2-19.61,0.02
		c-2.57-0.07-3.94,0.82-4.93,3.14c-2.99,7.01-6.25,13.9-9.19,20.94c-0.97,2.31-2.05,3.37-4.74,3.28
		c-6.77-0.22-13.54-0.07-21.02-0.07c0.82-1.98,1.32-3.33,1.93-4.62c15.64-33.26,31.28-66.51,46.96-99.75
		c1.9-4.04,3.01-9.46,6.23-11.57c3.07-2.01,8.52-0.01,12.77-0.69c6.93-1.11,9.84,2.02,12.43,8.11
		C208.48,23.99,215.45,37.85,222.51,52.84z"/>
	<path class="st0" d="M22.46,37.02c0,10.6-0.01,20.1,0,29.61c0.02,15.81-0.03,31.61,0.15,47.42c0.04,3.21-0.83,4.3-4.11,4.17
		c-6.09-0.24-12.19-0.07-18.5-0.07C0,79.38,0,41.03,0,2.2c6.92,0,13.7-0.11,20.47,0.11c1.2,0.04,2.63,1.23,3.5,2.27
		c20.71,24.57,41.36,49.19,61.98,73.84c0.76,0.91,1.11,2.15,1.66,3.24c0.54-0.37,1.09-0.75,1.63-1.12c0-25.92,0-51.84,0-78.05
		c7.78,0,15.05,0,22.65,0c0,38.48,0,76.83,0,115.74c-6.87,0-13.64,0.13-20.41-0.13c-1.14-0.04-2.37-1.63-3.29-2.72
		C66.85,89.9,45.55,64.41,24.24,38.92C23.91,38.53,23.55,38.18,22.46,37.02z"/>
	<path class="st0" d="M275.93,52.4c-1.23,9.7-0.87,18.84,3.5,27.19c9.8,18.71,29.44,24.06,48.75,17.92
		c10.36-3.29,10.26-3.6,10.27-14.24c0-2.83,0-5.65,0-9c-9.43,0-18.34,0-27.47,0c0-6.59,0-12.66,0-19.06c16.18,0,32.32,0,48.95,0
		c0,6.33,0,12.78,0,20.2c2.69-1.89,4.64-3.18,6.5-4.59C386,55.91,408.08,48.76,432.68,49.2c8.15,0.15,16.31,0.02,24.8,0.02
		c0,6.46,0,12.64,0,19.48c-1.64,0-3.35-0.04-5.06,0.01c-12.1,0.36-24.33-0.21-36.28,1.34c-19.07,2.48-34.34,13.16-48.29,25.74
		c-7.7,6.94-15.39,13.74-24.88,18.31c-27.42,13.21-62.03,6.1-79.48-17.22c-4.3-5.75-6.71-12.94-9.76-19.58
		c-1.09-2.39-0.31-4.34,1.97-6.3C262.49,65.18,268.9,58.93,275.93,52.4z"/>
	<path class="st0" d="M563.28,86.76c4.59,5.1,9.04,10.04,13.44,14.94c-9.58,13.49-33.48,22.95-58.06,16.84
		c-25.11-6.24-42.07-26.52-44.1-51.77c-2.38-29.56,12.3-53.11,37.73-62.66c23.76-8.92,51.38-1.73,63.97,13.19
		c-4.39,5.28-8.81,10.6-13.37,16.08c-6.5-5.99-13.66-10.56-22.41-12.13c-20.01-3.59-38.41,9.32-41.98,29.5
		c-2.86,16.16,0.31,30.58,13.47,41.29c13.72,11.16,32.89,10.21,47.02-1.59C560.34,89.32,561.65,88.17,563.28,86.76z"/>
	<path class="st0" d="M379.27,54.01c0-17.05,0-34.13,0-51.47c1.12-0.1,2.16-0.27,3.2-0.27c26.28,0,52.55,0.08,78.83-0.04
		c3.44-0.02,4.48,0.98,4.27,4.38c-0.3,4.98-0.08,10-0.08,15.51c-2.01,0-3.6,0-5.19,0c-17.97-0.01-35.95,0.08-53.92-0.11
		c-3.77-0.04-5.36,0.74-5.06,4.87c0.38,5.28,0.18,10.61,0.03,15.92c-0.03,1.15-0.6,2.98-1.41,3.31
		C393.21,48.87,386.34,51.36,379.27,54.01z"/>
	<path class="st0" d="M466.55,98.22c0,6.88,0,13.19,0,19.77c-29.19,0-58.12,0-87.42,0c0-7.19-0.05-14.12,0.06-21.04
		c0.02-0.92,0.67-2.17,1.42-2.68c6.51-4.38,13.1-8.62,20.62-13.53c0,6.56,0,11.74,0,17.48C423.24,98.22,444.78,98.22,466.55,98.22z"
		/>
	<path class="st0" d="M253.34,118.24c-8.31,0-15.88,0.04-23.44-0.07c-0.72-0.01-1.75-0.83-2.07-1.54
		c-3.58-7.72-7.05-15.5-10.64-23.47c6.81-3.04,13.2-5.89,19.99-8.92c2.65,5.58,5.26,11.06,7.86,16.54
		C247.65,106.28,250.26,111.78,253.34,118.24z"/>
	<g>
		<path class="st0" d="M640.1,120.68c-33.23,0-60.27-27.04-60.27-60.27c0-33.23,27.04-60.27,60.27-60.27
			c33.23,0,60.27,27.04,60.27,60.27C700.37,93.65,673.33,120.68,640.1,120.68z M640.1,12.89c-26.2,0-47.52,21.32-47.52,47.52
			s21.32,47.52,47.52,47.52s47.52-21.32,47.52-47.52S666.3,12.89,640.1,12.89z"/>
		<g>
			<g>
				<path class="st1" d="M641.43,16.35c-25.4-0.69-44.74,19.71-45.3,42.84c-0.6,24.99,19.31,44.93,43.31,45.3
					c24.53,0.37,44.4-19.38,44.63-43.32C684.56,36.18,664.6,16.98,641.43,16.35z M640.28,102.41c-23.2,0.09-42.23-18.87-42.07-42.38
					c0.16-22.82,18.79-41.7,42.1-41.65c22.73,0.05,41.9,18.78,41.73,42.17C681.98,83.8,663.12,102.32,640.28,102.41z"/>
				<path class="st0" d="M682.04,60.55c-0.06,23.25-18.92,41.77-41.76,41.86c-23.2,0.09-42.23-18.87-42.07-42.38
					c0.16-22.82,18.79-41.7,42.1-41.65C663.04,18.43,682.22,37.16,682.04,60.55z"/>
			</g>
			<g>
				<path class="st1" d="M656.1,49.17c-5.16,0-10.31,0-15.47,0c-1.93,0-3.53,0.7-4.81,2.17c-1.55,1.79-3.01,3.67-4.66,5.38
					c-0.76,0.79-1.62,1.42-2.59,1.92c-0.75,0.38-1.73,0.13-2.26-0.53c-0.65-0.8-0.9-1.78-1.27-2.7c-0.57-1.39-0.9-2.86-1.43-4.26
					c-0.44-1.17-1.05-2.23-1.92-3.15c-0.43-0.45-0.93-0.62-1.52-0.62c-3.87,0-7.73,0-11.6-0.01c-0.48,0-0.99,0.01-1.33-0.42
					c-0.24-0.3-0.48-0.63-0.22-1.05c0.27-0.44,0.65-0.73,1.18-0.7c3.76,0.19,7.53,0.12,11.29,0.04c2.12-0.04,3.54,0.85,4.68,2.51
					c1.29,1.88,1.84,4.06,2.55,6.17c0.25,0.74,0.52,1.48,0.81,2.2c0.19,0.47,0.4,0.53,0.86,0.26c0.79-0.46,1.38-1.16,1.98-1.83
					c1.04-1.17,2.05-2.37,3.03-3.58c0.82-1.02,1.68-1.99,2.8-2.67c0.81-0.5,1.68-0.85,2.64-1.06c1.12-0.24,2.22-0.16,3.33-0.16
					c9.79-0.01,19.58,0.01,29.37,0.01c0.46,0,0.9,0.05,1.32,0.24c0.35,0.16,0.54,0.44,0.55,0.82c0.02,0.38-0.19,0.64-0.5,0.81
					c-0.28,0.16-0.58,0.22-0.91,0.22c-5.31-0.01-10.61,0-15.92,0C656.1,49.19,656.1,49.18,656.1,49.17z"/>
				<path class="st1" d="M654.79,58.87c-5.29,0-10.58-0.02-15.87,0.01c-1.55,0.01-2.89,0.67-4.14,1.59
					c-1.77,1.31-3.17,2.96-4.57,4.63c-0.96,1.15-1.96,2.29-3.06,3.31c-1.08,1-2.24,0.84-3.03-0.42c-0.59-0.94-0.93-1.97-1.24-3.03
					c-0.54-1.88-1.12-3.75-2.29-5.36c-0.74-1.02-1.72-1.65-3.04-1.73c-2.39-0.14-4.78-0.05-7.17-0.1c-0.98-0.02-1.96-0.06-2.94,0.08
					c-0.51,0.07-0.94-0.15-1.24-0.58c-0.23-0.32-0.22-0.67-0.04-0.99c0.25-0.43,0.66-0.6,1.14-0.6c1.56,0,3.11,0,4.67,0.02
					c1.89,0.02,3.78-0.01,5.67,0.09c2.12,0.12,3.73,1.18,4.89,2.95c1.06,1.61,1.6,3.44,2.2,5.25c0.27,0.81,0.58,1.6,0.87,2.39
					c0.15,0.4,0.31,0.39,0.59,0.11c1.24-1.26,2.37-2.63,3.51-3.98c1.53-1.81,3.22-3.45,5.29-4.63c1.16-0.66,2.43-1.06,3.77-1.07
					c7.6-0.02,15.2-0.02,22.8-0.03c2.98,0,5.96,0,8.94-0.01c0.56,0,1.07,0.07,1.53,0.46c0.41,0.35,0.48,0.81,0.07,1.16
					c-0.45,0.39-0.98,0.46-1.55,0.46c-5.26,0-10.51,0-15.77,0C654.79,58.85,654.79,58.86,654.79,58.87z"/>
				<path class="st1" d="M653.35,69.25c-4.92,0-9.84,0.01-14.76-0.01c-1.6,0-2.98,0.5-4.26,1.45c-2.22,1.65-4.09,3.64-5.88,5.72
					c-0.7,0.81-1.36,1.66-2.09,2.43c-0.92,0.97-1.96,1.38-2.94,0.96c-0.65-0.28-1.15-0.75-1.51-1.34c-0.73-1.2-1.17-2.53-1.62-3.84
					c-0.54-1.6-1.12-3.18-2.1-4.57c-0.86-1.22-1.99-1.84-3.52-1.82c-3.08,0.04-6.16,0.01-9.24,0c-0.37,0-0.73,0.04-1.05-0.22
					c-0.35-0.28-0.58-0.61-0.42-1.08c0.15-0.47,0.45-0.8,0.97-0.8c3.46,0,6.93,0.02,10.39,0.04c2.48,0.01,3.9,1.59,5.07,3.48
					c1.2,1.93,1.77,4.14,2.6,6.24c0.23,0.59,0.44,1.19,0.85,1.69c0.28,0.34,0.52,0.36,0.81,0.02c0.92-1.06,1.84-2.11,2.77-3.16
					c2.04-2.29,4.12-4.52,6.79-6.12c1.12-0.67,2.3-1.1,3.64-1.09c8.85,0.01,17.71,0,26.56-0.01c1.25,0,2.51,0.06,3.76-0.08
					c0.52-0.06,1.03,0.03,1.5,0.27c0.67,0.34,0.76,1.21,0.04,1.58c-0.39,0.2-0.79,0.25-1.21,0.25c-5.05,0-10.11,0-15.16,0
					C653.35,69.24,653.35,69.24,653.35,69.25z"/>
				<path class="st1" d="M650.48,79.61c-5.15,0-10.31,0.02-15.46-0.01c-1.86-0.01-3.29,0.8-4.45,2.15
					c-1.52,1.78-2.88,3.68-4.48,5.39c-0.68,0.72-1.39,1.4-2.24,1.91c-1.51,0.91-2.99,0.6-3.96-0.85c-0.83-1.26-1.27-2.7-1.71-4.13
					c-0.42-1.37-0.84-2.75-1.6-3.99c-0.58-0.94-1.34-1.41-2.52-1.39c-2.93,0.06-5.86,0-8.79,0c-0.33,0-0.63-0.04-0.92-0.2
					c-0.36-0.2-0.63-0.48-0.56-0.92c0.07-0.42,0.27-0.78,0.73-0.93c0.2-0.06,0.39-0.07,0.59-0.07c2.54,0.01,5.09,0,7.63,0.05
					c0.78,0.01,1.57,0.01,2.35,0.07c1.23,0.09,2.1,0.8,2.82,1.72c0.84,1.07,1.33,2.3,1.74,3.59c0.51,1.63,0.99,3.27,1.74,4.82
					c0.32,0.67,0.83,0.79,1.48,0.35c1.19-0.81,2.1-1.9,3.03-2.98c1.18-1.37,2.2-2.86,3.43-4.18c1.56-1.67,3.5-2.44,5.77-2.44
					c4.45,0,8.9,0.03,13.36-0.03c5.92-0.09,11.85-0.04,17.77-0.09c0.5,0,0.97,0.05,1.39,0.33c0.55,0.37,0.57,1.01,0.03,1.4
					c-0.36,0.26-0.76,0.39-1.22,0.39c-5.32-0.01-10.64,0-15.97,0C650.48,79.58,650.48,79.6,650.48,79.61z"/>
			</g>
		</g>
	</g>
</g>
</svg>
