<?xml version="1.0" encoding="utf-8"?>
<!-- Generator: Adobe Illustrator 27.6.1, SVG Export Plug-In . SVG Version: 6.00 Build 0)  -->
<svg version="1.1" id="Layer_1" xmlns="http://www.w3.org/2000/svg" xmlns:xlink="http://www.w3.org/1999/xlink" x="0px" y="0px"
	 viewBox="0 0 370.89 332.58" style="enable-background:new 0 0 370.89 332.58;" xml:space="preserve">
<style type="text/css">
	.st0{fill:#69A3D8;}
	.st1{fill:#FFFFFF;}
</style>
<g>
	<path class="st0" d="M185.79,49.64c64.32,0.32,116.29,52.27,116.17,116.72c-0.06,31.5-11.04,58.91-33.06,81.43
		c-22.69,23.2-50.59,35.1-83.09,35.16c-31.27,0.06-58.54-10.78-81.1-32.51c-23.81-22.93-35.73-51.24-35.78-84.27
		C68.82,101.08,121.98,49.32,185.79,49.64z M287.96,167.4c0.91-57.64-45.2-102.91-99.75-104.1c-29.05-0.63-54.9,9.68-74.54,29.21
		c-19.61,19.51-30.2,43.13-30.88,70.89c-1.43,58.68,45.17,104.61,101.03,105.55C240.8,269.91,287.81,223.47,287.96,167.4z"/>
	<path class="st1" d="M287.96,167.4c-0.15,56.08-47.16,102.52-104.14,101.55c-55.86-0.94-102.46-46.87-101.03-105.55
		c0.68-27.76,11.27-51.38,30.88-70.89c19.64-19.54,45.49-29.85,74.54-29.21C242.76,64.48,288.87,109.75,287.96,167.4z M87.65,166.48
		c-0.11,6.61,0.44,13.07,1.92,19.44c0.58,2.49,1.2,4.96,1.74,7.46c0.53,2.43,1.47,4.79,2.36,7.13c1.48,3.89,3.31,7.62,5.22,11.32
		c4.24,8.2,9.67,15.57,15.98,22.25c5.26,5.57,11.26,10.33,17.69,14.51c3.9,2.54,7.99,4.78,12.26,6.64
		c4.57,1.99,9.12,3.96,14.03,5.11c4.86,1.14,9.72,2.18,14.66,2.92c5.51,0.83,11.04,0.85,16.58,0.73c1.75-0.04,3.53-0.06,5.25-0.36
		c4.6-0.81,9.24-1.36,13.77-2.56c2.14-0.57,4.31-1.04,6.4-1.72c3.03-0.99,6.01-2.17,8.95-3.43c4.7-2.01,9.14-4.51,13.44-7.23
		c3.4-2.15,6.59-4.63,9.76-7.13c4.21-3.32,8-7.07,11.51-11.11c4.45-5.13,8.34-10.66,11.67-16.59c2.54-4.52,4.72-9.2,6.47-14.08
		c2.16-6,3.69-12.16,4.67-18.48c0.7-4.52,1.14-9.06,1.2-13.61c0.06-4.27,0.27-8.54-0.75-12.8c-0.59-2.48-0.55-5.13-1.02-7.68
		c-0.59-3.18-1.04-6.41-2.18-9.43c-1.61-4.26-2.85-8.67-5.05-12.72c-1.3-2.4-2.24-5.01-3.6-7.4c-4.48-7.87-9.96-14.99-16.39-21.36
		c-4.51-4.47-9.34-8.55-14.8-11.85c-2.63-1.59-5.1-3.42-7.81-4.87c-1.48-0.79-3.01-1.48-4.53-2.19c-3.86-1.78-7.76-3.47-11.8-4.8
		c-3.48-1.14-7.01-2.07-10.64-2.65c-3.88-0.61-7.73-1.52-11.66-1.76c-5.46-0.33-10.91-0.34-16.36,0.17
		c-6.41,0.6-12.71,1.75-18.86,3.66c-4.6,1.43-9.11,3.08-13.49,5.13c-8.87,4.14-16.93,9.47-24.19,16
		c-7.06,6.34-13.12,13.54-18.02,21.68c-5.57,9.26-9.82,19.05-12.06,29.68C88.39,151.82,87.46,159.13,87.65,166.48z"/>
	<path class="st0" d="M87.65,166.48c-0.19-7.35,0.73-14.66,2.27-21.95c2.25-10.64,6.49-20.42,12.06-29.68
		c4.9-8.15,10.97-15.34,18.02-21.68c7.26-6.53,15.32-11.87,24.19-16c4.38-2.04,8.89-3.7,13.49-5.13c6.15-1.91,12.44-3.06,18.86-3.66
		c5.46-0.51,10.91-0.5,16.36-0.17c3.94,0.24,7.78,1.15,11.66,1.76c3.63,0.57,7.16,1.5,10.64,2.65c4.04,1.33,7.94,3.02,11.8,4.8
		c1.52,0.7,3.05,1.39,4.53,2.19c2.71,1.45,5.18,3.28,7.81,4.87c5.46,3.3,10.29,7.38,14.8,11.85c6.43,6.37,11.91,13.48,16.39,21.36
		c1.36,2.39,2.3,5,3.6,7.4c2.2,4.05,3.44,8.46,5.05,12.72c1.14,3.02,1.59,6.25,2.18,9.43c0.47,2.55,0.43,5.2,1.02,7.68
		c1.02,4.26,0.81,8.53,0.75,12.8c-0.06,4.55-0.5,9.09-1.2,13.61c-0.98,6.32-2.51,12.47-4.67,18.48c-1.76,4.87-3.93,9.55-6.47,14.08
		c-3.33,5.93-7.22,11.46-11.67,16.59c-3.5,4.04-7.3,7.79-11.51,11.11c-3.17,2.5-6.35,4.98-9.76,7.13c-4.3,2.72-8.73,5.22-13.44,7.23
		c-2.94,1.26-5.92,2.44-8.95,3.43c-2.08,0.68-4.26,1.15-6.4,1.72c-4.52,1.2-9.17,1.75-13.77,2.56c-1.72,0.3-3.49,0.32-5.25,0.36
		c-5.54,0.13-11.06,0.1-16.58-0.73c-4.94-0.74-9.8-1.78-14.66-2.92c-4.91-1.15-9.46-3.12-14.03-5.11c-4.27-1.86-8.35-4.1-12.26-6.64
		c-6.43-4.18-12.43-8.94-17.69-14.51c-6.31-6.68-11.75-14.04-15.98-22.25c-1.91-3.7-3.74-7.43-5.22-11.32
		c-0.89-2.34-1.83-4.7-2.36-7.13c-0.54-2.5-1.16-4.97-1.74-7.46C88.1,179.55,87.54,173.1,87.65,166.48z M225.31,142.37
		c0,0.02,0,0.04,0,0.06c12.38,0,24.76,0,37.14,0.01c0.68,0,1.31-0.09,1.93-0.38c0.89-0.41,1.48-1.02,1.44-2.05
		c-0.04-1.05-0.64-1.69-1.61-2.07c-0.94-0.37-1.9-0.39-2.88-0.39c-23.86-0.02-47.73-0.03-71.59-0.07c-2.57,0-5.04,0.29-7.47,1.21
		c-2.42,0.92-4.5,2.27-6.36,4.02c-2.99,2.81-5.26,6.25-8.02,9.25c-2.2,2.39-4.11,5.06-6.78,7c-1.4,1.02-1.98,0.87-2.55-0.69
		c-0.84-2.29-1.72-4.57-2.44-6.91c-1.44-4.7-2.95-9.37-6.03-13.34c-1.93-2.48-4.25-4.29-7.49-4.74c-1.22-0.17-2.4,0.03-3.6,0.03
		c-7.69-0.03-15.39-0.01-23.08-0.01c-0.94,0-1.87-0.04-2.81-0.02c-1.42,0.03-2.5,0.95-2.6,2.18c-0.09,1.1,0.89,2.21,2.22,2.49
		c0.69,0.15,1.38,0.22,2.09,0.22c8.83,0,17.65,0.03,26.48-0.01c1.95-0.01,3.34,0.8,4.51,2.25c1.95,2.43,3.32,5.17,4.32,8.11
		c0.95,2.79,1.66,5.67,2.79,8.4c0.89,2.15,1.47,4.44,2.98,6.31c1.26,1.56,3.51,2.15,5.28,1.24c2.26-1.16,4.29-2.64,6.05-4.48
		c3.44-3.62,6.58-7.5,9.8-11.32c1.73-2.06,3.6-3.97,6.12-5.12c1.87-0.86,3.83-1.19,5.86-1.19
		C201.09,142.37,213.2,142.37,225.31,142.37z M222.4,162.36c0-0.02,0-0.04,0-0.06c12.22,0,24.45,0,36.67,0
		c0.91,0,1.84,0.01,2.63-0.43c0.75-0.41,1.68-0.79,1.7-1.88c0.01-0.75-0.28-1.4-0.97-1.75c-1.07-0.55-2.19-0.83-3.43-0.83
		c-22.61,0.04-45.23,0.04-67.84,0.08c-3.29,0.01-6.61-0.33-9.88,0.58c-1.77,0.49-3.54,1-5.12,1.91c-4.82,2.77-8.77,6.58-12.34,10.8
		c-2.67,3.15-5.29,6.35-8.19,9.3c-0.63,0.64-0.98,0.74-1.41-0.2c-0.86-1.91-1.51-3.89-2.1-5.9c-1.23-4.16-2.6-8.26-5.05-11.89
		c-2.77-4.12-6.4-6.93-11.61-6.98c-7.54-0.07-15.07-0.09-22.61-0.13c-0.59,0-1.18-0.03-1.76,0.04c-1.33,0.16-2.4,1.2-2.43,2.29
		c-0.04,1.11,0.84,2.11,2.14,2.42c0.26,0.06,0.55,0.1,0.81,0.06c2.45-0.35,4.9-0.08,7.35-0.04c4.84,0.07,9.69,0.05,14.53,0.11
		c1.2,0.01,2.42,0.09,3.61,0.27c2.47,0.36,4.07,2.06,5.44,3.93c2.73,3.71,3.93,8.1,5.37,12.38c0.82,2.43,1.44,4.95,2.83,7.15
		c1.88,2.96,4.59,3.35,7.15,0.96c2.57-2.39,4.89-5.04,7.14-7.73c3.23-3.86,6.48-7.68,10.57-10.71c2.93-2.17,6.09-3.72,9.75-3.74
		C197.72,162.32,210.06,162.36,222.4,162.36z M218.81,182.08c0-0.01,0-0.02,0-0.03c10.98,0,21.95,0,32.93,0
		c1.05,0,2.11,0.02,3.16-0.01c1.9-0.06,3.52-1.32,3.45-2.64c-0.05-1.11-1.72-2.26-3.44-2.27c-1.09-0.01-2.18,0.17-3.27,0.17
		c-6.52,0.02-13.04,0.01-19.57,0.02c-16.64,0.02-33.28,0.04-49.91,0.07c-2.3,0-4.43,0.66-6.45,1.75
		c-5.92,3.21-10.65,7.83-15.13,12.74c-2.62,2.87-5.09,5.88-7.72,8.75c-1.76,1.92-2.01,2.59-3.66-0.59
		c-1.83-3.54-2.8-7.44-4.31-11.12c-1.61-3.92-3.43-7.71-6.64-10.62c-2-1.82-4.17-3.15-7.03-3.3c-3.32-0.17-6.63-0.13-9.95-0.16
		c-5.04-0.04-10.08-0.04-15.12-0.04c-1.12,0-2.17,0.82-2.47,1.95c-0.31,1.15,0.26,1.88,1.17,2.54c0.8,0.58,1.64,0.41,2.47,0.41
		c7.15,0.02,14.29,0,21.44,0.06c1.94,0.02,3.93,0.05,5.53,1.47c1.02,0.91,2.01,1.85,2.8,2.97c1.94,2.78,3.13,5.91,4.3,9.05
		c1.19,3.17,2.12,6.45,3.73,9.46c0.9,1.68,2.08,3.13,3.84,3.96c2.15,1.01,4.9,0.16,6.99-2.13c1.21-1.33,2.35-2.71,3.51-4.08
		c4.13-4.89,8.45-9.59,13.39-13.71c3.9-3.25,8.22-4.81,13.37-4.72C197.09,182.21,207.95,182.08,218.81,182.08z M212.28,206.01
		c0-0.04,0-0.08,0-0.12c12.42,0,24.84-0.01,37.26,0.01c1.02,0,1.93-0.28,2.75-0.83c1.41-0.94,1.35-2.6-0.11-3.49
		c-0.94-0.58-1.99-0.62-3.05-0.62c-13.82,0.11-27.65,0-41.47,0.2c-10.39,0.16-20.78,0.09-31.17,0.08
		c-5.31-0.01-9.84,1.78-13.49,5.67c-2.88,3.08-5.26,6.58-8.01,9.76c-2.17,2.51-4.29,5.06-7.06,6.95c-1.52,1.04-2.65,0.87-3.4-0.67
		c-1.43-2.93-2.49-6.01-3.4-9.14c-1.09-3.72-2.32-7.38-4.71-10.51c-2.05-2.67-4.62-4.26-8.18-4.19c-4.76,0.09-9.52-0.1-14.29-0.16
		c-2.66-0.03-5.31-0.05-7.97-0.03c-1.36,0.01-2.59,1.07-2.75,2.27c-0.14,1.02,0.78,2.25,1.99,2.55c0.48,0.12,1.01,0.09,1.51,0.09
		c6.84,0.02,13.67,0.13,20.51,0.01c2.8-0.05,4.62,1.19,6.01,3.39c1.49,2.36,2.39,4.98,3.18,7.64c1.03,3.47,2.11,6.93,3.82,10.14
		c2.25,4.22,5.98,5.36,9.86,3.02c1.98-1.2,3.66-2.77,5.24-4.46c3.73-3.99,6.92-8.44,10.46-12.59c2.69-3.15,6.02-5.05,10.37-5.02
		C188.22,206.06,200.25,206.01,212.28,206.01z"/>
	<path class="st1" d="M225.31,142.37c-12.11,0-24.22,0-36.32,0c-2.03,0-3.99,0.33-5.86,1.19c-2.52,1.15-4.38,3.06-6.12,5.12
		c-3.21,3.82-6.35,7.7-9.8,11.32c-1.75,1.84-3.79,3.32-6.05,4.48c-1.77,0.91-4.02,0.33-5.28-1.24c-1.51-1.87-2.08-4.16-2.98-6.31
		c-1.14-2.73-1.84-5.61-2.79-8.4c-1-2.94-2.37-5.67-4.32-8.11c-1.17-1.45-2.56-2.26-4.51-2.25c-8.83,0.04-17.65,0-26.48,0.01
		c-0.71,0-1.4-0.07-2.09-0.22c-1.32-0.29-2.31-1.39-2.22-2.49c0.1-1.23,1.18-2.15,2.6-2.18c0.94-0.02,1.87,0.02,2.81,0.02
		c7.69,0,15.39-0.01,23.08,0.01c1.2,0,2.37-0.2,3.6-0.03c3.25,0.45,5.56,2.25,7.49,4.74c3.09,3.96,4.59,8.64,6.03,13.34
		c0.72,2.34,1.6,4.62,2.44,6.91c0.57,1.56,1.15,1.71,2.55,0.69c2.67-1.94,4.58-4.61,6.78-7c2.77-3,5.04-6.44,8.02-9.25
		c1.86-1.75,3.95-3.11,6.36-4.02c2.43-0.92,4.9-1.22,7.47-1.21c23.86,0.04,47.73,0.05,71.59,0.07c0.98,0,1.94,0.02,2.88,0.39
		c0.97,0.38,1.57,1.02,1.61,2.07c0.04,1.03-0.55,1.64-1.44,2.05c-0.62,0.29-1.26,0.38-1.93,0.38c-12.38-0.01-24.76-0.01-37.14-0.01
		C225.31,142.41,225.31,142.39,225.31,142.37z"/>
	<path class="st1" d="M222.4,162.36c-12.34,0-24.68-0.04-37.02,0.03c-3.67,0.02-6.82,1.56-9.75,3.74
		c-4.09,3.03-7.34,6.85-10.57,10.71c-2.25,2.69-4.57,5.33-7.14,7.73c-2.56,2.38-5.27,2-7.15-0.96c-1.4-2.2-2.02-4.72-2.83-7.15
		c-1.44-4.28-2.64-8.68-5.37-12.38c-1.38-1.87-2.97-3.57-5.44-3.93c-1.19-0.18-2.4-0.25-3.61-0.27c-4.84-0.05-9.69-0.03-14.53-0.11
		c-2.45-0.04-4.9-0.31-7.35,0.04c-0.26,0.04-0.55,0-0.81-0.06c-1.3-0.31-2.18-1.31-2.14-2.42c0.04-1.09,1.11-2.13,2.43-2.29
		c0.58-0.07,1.17-0.04,1.76-0.04c7.54,0.04,15.07,0.06,22.61,0.13c5.22,0.05,8.84,2.86,11.61,6.98c2.44,3.63,3.82,7.74,5.05,11.89
		c0.59,2,1.24,3.99,2.1,5.9c0.42,0.94,0.78,0.84,1.41,0.2c2.9-2.95,5.52-6.15,8.19-9.3c3.58-4.22,7.52-8.02,12.34-10.8
		c1.58-0.91,3.35-1.41,5.12-1.91c3.27-0.91,6.58-0.58,9.88-0.58c22.61-0.04,45.23-0.04,67.84-0.08c1.24,0,2.36,0.28,3.43,0.83
		c0.69,0.35,0.99,1,0.97,1.75c-0.02,1.09-0.95,1.47-1.7,1.88c-0.79,0.44-1.72,0.43-2.63,0.43c-12.22-0.01-24.45,0-36.67,0
		C222.4,162.32,222.4,162.34,222.4,162.36z"/>
	<path class="st1" d="M218.81,182.08c-10.86,0-21.72,0.14-32.57-0.06c-5.16-0.09-9.47,1.46-13.37,4.72
		c-4.94,4.12-9.25,8.82-13.39,13.71c-1.16,1.37-2.3,2.75-3.51,4.08c-2.09,2.29-4.84,3.14-6.99,2.13c-1.76-0.83-2.94-2.28-3.84-3.96
		c-1.62-3-2.55-6.28-3.73-9.46c-1.17-3.14-2.36-6.27-4.3-9.05c-0.79-1.13-1.78-2.06-2.8-2.97c-1.6-1.42-3.59-1.45-5.53-1.47
		c-7.15-0.06-14.29-0.04-21.44-0.06c-0.84,0-1.68,0.17-2.47-0.41c-0.91-0.66-1.48-1.39-1.17-2.54c0.31-1.13,1.35-1.95,2.47-1.95
		c5.04,0,10.08,0,15.12,0.04c3.32,0.03,6.63-0.01,9.95,0.16c2.86,0.15,5.03,1.48,7.03,3.3c3.21,2.92,5.03,6.7,6.64,10.62
		c1.51,3.68,2.48,7.58,4.31,11.12c1.64,3.19,1.9,2.51,3.66,0.59c2.63-2.86,5.1-5.87,7.72-8.75c4.48-4.91,9.21-9.53,15.13-12.74
		c2.02-1.09,4.15-1.75,6.45-1.75c16.64-0.03,33.28-0.05,49.91-0.07c6.52-0.01,13.05,0,19.57-0.02c1.09,0,2.18-0.18,3.27-0.17
		c1.71,0.01,3.38,1.16,3.44,2.27c0.06,1.32-1.55,2.58-3.45,2.64c-1.05,0.04-2.11,0.01-3.16,0.01c-10.98,0-21.95,0-32.93,0
		C218.81,182.06,218.81,182.07,218.81,182.08z"/>
	<path class="st1" d="M212.28,206.01c-12.03,0-24.06,0.05-36.09-0.03c-4.35-0.03-7.68,1.87-10.37,5.02
		c-3.55,4.15-6.73,8.59-10.46,12.59c-1.58,1.69-3.26,3.26-5.24,4.46c-3.88,2.34-7.61,1.2-9.86-3.02c-1.71-3.21-2.79-6.66-3.82-10.14
		c-0.79-2.66-1.69-5.28-3.18-7.64c-1.39-2.2-3.21-3.44-6.01-3.39c-6.83,0.11-13.67,0.01-20.51-0.01c-0.51,0-1.03,0.03-1.51-0.09
		c-1.2-0.3-2.12-1.53-1.99-2.55c0.16-1.2,1.38-2.26,2.75-2.27c2.66-0.02,5.31,0,7.97,0.03c4.76,0.05,9.53,0.25,14.29,0.16
		c3.56-0.07,6.13,1.52,8.18,4.19c2.39,3.12,3.62,6.79,4.71,10.51c0.91,3.13,1.98,6.21,3.4,9.14c0.75,1.54,1.88,1.71,3.4,0.67
		c2.77-1.89,4.9-4.45,7.06-6.95c2.75-3.19,5.13-6.69,8.01-9.76c3.65-3.89,8.17-5.68,13.49-5.67c10.39,0.01,20.78,0.08,31.17-0.08
		c13.82-0.21,27.65-0.1,41.47-0.2c1.07-0.01,2.11,0.04,3.05,0.62c1.46,0.89,1.52,2.55,0.11,3.49c-0.83,0.55-1.73,0.83-2.75,0.83
		c-12.42-0.02-24.84-0.01-37.26-0.01C212.28,205.93,212.28,205.97,212.28,206.01z"/>
</g>
</svg>
