<svg id="Layer_1" data-name="Layer 1" xmlns="http://www.w3.org/2000/svg" viewBox="0 0 319.98 306.67"><defs><style>.cls-1,.cls-2{fill:#fff;}.cls-2{fill-rule:evenodd;}</style></defs><path class="cls-1" d="M160,13.53A139.81,139.81,0,1,0,299.8,153.35v0A139.81,139.81,0,0,0,160,13.53m0,277.77a138,138,0,1,1,138-138v0a138,138,0,0,1-138,138Z"/><path class="cls-1" d="M281,123.77l-2.88,5.59a8.19,8.19,0,0,1,1,2.93l.6,3.59c.27,3.66.48,2.79-1.76,5.7-1.47,1.93-3.16,3.77-4.43,5.8s-1.92,2.23-1.88,6.14v.29h0a112,112,0,0,1-44,88h0a109.52,109.52,0,0,1-135.77.08h0A112.12,112.12,0,0,1,48,157.23v-3.47c.1-3.8.27-3.17-2-6.22l-.92-1.22-4.56,4.43a5.66,5.66,0,0,1,.5,2.87v.24h0v2.72h0a118.81,118.81,0,0,0,50.22,93.28V250a119.16,119.16,0,0,0,68.53,22.36h0A119,119,0,0,0,228.3,250h0a118.75,118.75,0,0,0,50.13-93h0c0-.9.08-2.27.11-3.17,0-3.58.34-2.82,2.21-5.57,1.39-2,2.94-3.93,4.41-5.9,2.28-3,2.66-2.29,2-6-.7-4.22-.45-3-1.08-6.58-.68-3.85-.66-2.83-3.91-5l-1.19-.79"/><path class="cls-1" d="M108.56,262.8c-2-.92-4-1.89-6-2.89l-1.78,3.17c-23.28-15-39.05-32.56-50.29-54.21a114,114,0,0,1-13.61-51.55c-.09-5.79.1-4.94,4.28-9l5.26-5.05c2.8-2.71,2.26-4,2.93-7.92v-.14c.65-3.74,1.34-4.18-.4-7.55l-.7-1.35-5.33,3.49c0,.6-.22,1.28-.43,3.16-.19,1.48-.3,2-.52,3.17-.65,3.53,0,2.77-2.63,5.31l-4,3.95c-2.69,2.67-4.75,3.58-5.05,7.38v2.27h0v2h0c.41,19,4.31,35.55,14.41,55,12,23.06,35.82,47.7,60,58.83l3-6.14Z"/><polygon class="cls-1" points="107.03 273.01 110.85 274.64 112.5 270.87 108.68 269.24 107.03 273.01"/><polygon class="cls-1" points="109.3 267.48 113.12 269.11 114.76 265.33 110.95 263.7 109.3 267.48"/><path class="cls-1" d="M198,268.7l1.4,3.77A141.71,141.71,0,0,1,173,277.71l-.35-3.64c-2.22.24-4.45.4-6.67.49l.67,8.71h.59A136.91,136.91,0,0,0,200,277.43h.22c2.08-.64,4.13-1.33,6.18-2.08l.58-.19-2.72-8.55c-2.07.79-4.18,1.59-6.33,2.22"/><path class="cls-1" d="M149.18,277.84a138.56,138.56,0,0,1-26.06-5.26l.86-3.8c-2.12-.68-4.23-1.42-6.33-2.2l-.65,2-2.06,6.58a136.47,136.47,0,0,0,33.25,7.6h.3c2.32.23,4.65.39,7,.5v-.19h0l.54-8.48c-2.22-.1-4.45-.26-6.67-.48Z"/><rect class="cls-1" x="158.96" y="274.47" width="4.15" height="4.12"/><path class="cls-1" d="M211.9,262.8c2-.92,4-1.89,6-2.89l1.22,3.17c23.28-15,39.59-32,50.85-53.65a115.94,115.94,0,0,0,13.61-52.11c0-2.8-.13-5.08-2.36-7.27l3.67-4.75c2.49,2.36,5,4,5.21,7.56v2.26h0v2h0c-.41,19-4.31,35.56-14.41,55-12,23.06-35.82,47.7-60,58.84l-3-6.15Z"/><polygon class="cls-1" points="213.76 273.01 209.94 274.64 208.29 270.87 212.11 269.24 213.76 273.01"/><polygon class="cls-1" points="211.48 267.48 207.66 269.11 206.01 265.33 209.83 263.7 211.48 267.48"/><path class="cls-1" d="M160,16.47A136.86,136.86,0,1,0,296.87,153.33v-.08A136.86,136.86,0,0,0,160,16.41M160,287A133.73,133.73,0,1,1,293.7,153.22v0A133.72,133.72,0,0,1,160,287h0Z"/><path class="cls-1" d="M160,81.51a71.82,71.82,0,1,0,71.82,71.82v-.08A71.89,71.89,0,0,0,160,81.45m0,140.61a68.81,68.81,0,1,1,68.76-68.85v0A68.89,68.89,0,0,1,160,222.13Z"/><path class="cls-1" d="M46.29,101.18,52,98.6a8,8,0,0,1,1-2.9l1.78-3.16c2.06-3,1.36-2.49,4.92-3.38,2.36-.58,4.75-1,7.08-1.75s2.73-.67,5.15-3.84l.09-.12.1.09c3-3,4.75-4.24,5-8.49V73.47l-6.34.47c-.44,1.27-3.24,3.77-4.21,5.2-2,3-1.87,2.12-5,3.17-2.36.72-4.75,1.23-7.14,1.86-3.66,1-3.5.15-5.35,3.47-2.08,3.72-1.58,2.62-3.25,5.82s-1.25,2.62,0,6.33c.15.44.3.9.46,1.35"/><path class="cls-1" d="M57.12,82.07l6-1.4c.12-1.58,3.07-4.49,4.26-5.71,2.55-2.63,1.77-2.22,5.43-2.46l7.28-.5c3.87-.27,4.31-1.59,7.3-4.15l.11-.11c2.89-2.44,3.71-2.35,4.55-6l.32-1.41-6.34-.76c-.38.48-1,.84-2.34,2.09-1.08,1-1.49,1.33-2.46,2.13-2.75,2.29-1.82,2.09-5.41,2.37l-7.35.6c-3.79.3-2.8-.76-5.45,2-1.47,1.58-3.45,4-4.85,5.68-2.53,3.17-1.8,2.47-1.28,6.34Z"/><path class="cls-1" d="M71.48,65.09l6.34-.46c.2-.62.71-1.07,2-2.37l2.75-2.38c3-2.15,2.12-1.87,5.78-1.49,2.41.26,4.75.68,7.26.76s2.78.29,5.92-1.58h0c3.83-1.82,5.95-2.3,7.65-6.19l.6-1.41-6.1-1.82c-.7.82-4.27,2.4-5.48,3.27-2.91,2.11-2.48,1.38-5.81,1.22-2.45-.12-4.89-.46-7.33-.69-3.79-.35-3.36-1.06-6.23,1.42-3.16,2.81-2.32,2-5,4.36s-2.06,2.06-2.21,5.94v1.42"/><path class="cls-1" d="M237.15,59.82l2.77,2.37c2.56,2.62,2.15,1.84,2.31,5.5.11,2.42,0,4.88.33,7.28s.12,2.82,2.66,5.78c.8.94,1.43,1.89,2.24,2.71h0c2.29,3,1.38,2.68,5,3.61l1.49.38.81-6.33a56,56,0,0,1-4.23-4.75c-2.52-2.55-1.72-2.25-2.06-5.56-.25-2.46-.27-4.91-.41-7.37-.2-3.78.56-3.46-2.33-5.93-3.16-2.78-2.26-2-5-4.34s-2.34-1.75-6.19-1.32l-1.43.16,1.4,6.15a8,8,0,0,1,2.63,1.58"/><path class="cls-1" d="M219.38,47.47a20.2,20.2,0,0,1,3.39,2c3,2.12,2.45,1.43,3.17,5,.52,2.37,1.06,4.75,1.58,7.12.82,3.79,2.25,4,5.18,6.61l.11.09c2.85,2.5,2.87,3.33,6.65,3.61l1.46.1-.19-6.34c-.54-.3-1-.85-2.43-2a25.66,25.66,0,0,1-2.45-2.13c-2.69-2.39-2.34-1.48-3.17-5l-1.58-7.17c-.86-3.69.33-2.89-2.76-5.1-1.87-1.35-4.51-2.62-6.57-3.8-3.45-2-2.72-1.4-6.43-.24l-1.34.41,2.35,5.7c.65,0,1.24.27,3.05,1.16"/><path class="cls-1" d="M157.65,32h3.64c3.66.3,2.84,0,5.35,2.63,1.67,1.78,3.17,3.68,5,5.32s1.93,2,5.79,2.62h.18v.12c1.14.3,2.42.46,3.66.73,3.72.79,2.78,1.14,6.17-.55l1.38-.68-3.52-5.31c-1.33.24-4.87-1-6.58-1.12-3.58-.29-2.77-.57-5.2-2.87-1.79-1.68-3.42-3.53-5.13-5.29-2.63-2.72-1.84-3-5.64-3H156.1c-3.92,0-2.92.23-5.55,3.08l-1,1,5.07,3.74a8.07,8.07,0,0,1,3-.51"/><path class="cls-1" d="M182.84,34.31c3.54.93,2.79.45,4.76,3.53,1.33,2,2.67,4,4,6.09,2.14,3.17,3.53,3,7.21,4.33h.12c3.57,1.31,3.87,2.07,7.51,1l1.39-.42L205.4,43c-.62-.09-1.24-.44-3-1-1.43-.45-1.9-.64-3.06-1.1-3.36-1.29-2.71-.56-4.75-3.55-1.38-2-2.74-4.09-4.12-6.11-2.12-3.17-.71-2.82-4.38-3.79-2.17-.57-5.09-1-7.34-1.42-3.92-.7-3-.38-6.12,2l-1.11.85,3.89,4.26a62.91,62.91,0,0,1,7.35,1.21"/><path class="cls-1" d="M136.55,34.32a21.85,21.85,0,0,1,3.47-.73c3.64-.33,2.79-.52,5.72,1.68l5.86,4.36c3.17,2.32,4.34,1.58,8.23,1.58H160c3.79,0,4.34.63,7.38-1.58l1.17-.87L164.24,34a23.58,23.58,0,0,1-3.17,0H157.9c-3.59,0-2.75.42-5.67-1.71l-6-4.14c-3.07-2.24-1.58-2.41-5.43-2.06-2.39.22-4.55,1-6.94,1.39-3.93.7-3,.68-5.08,4L128,32.61l5.48,2.85c.46-.46,1.11-.6,3.05-1.06"/><path class="cls-1" d="M119.5,39c3.53-1,2.64-1,5.92.65,2.17,1.09,4.28,2.32,6.53,3.26s2.51,1.27,6.33.49c1.19-.24,2.33-.33,3.44-.63h0c3.77-.54,3,.11,5.62-2.65L148.4,39l-5.15-3.81a41,41,0,0,1-5.71,1.17v.13l-.46.11c-3.46.95-2.81.41-5.86-.91-2.25-1-4.42-2.15-6.62-3.16-3.41-1.59-2.76-2.19-6.34-.86-4,1.47-2.85,1-6.24,2.3-3.65,1.37-2.67,1.18-4.18,4.75-.17.43-.36.87-.54,1.31l6,1.78c.84-1,4.75-2.27,6.11-2.78"/><path class="cls-1" d="M199.87,38.82l3.44,1.23c3.32,1.59,2.66.94,4.11,4.31,1,2.23,1.78,4.55,2.9,6.7s1.11,2.58,4.55,4.45c1.06.59,2.2,1.27,3.16,1.93,3.17,2.06,2.2,2.06,6,1.68l1.59-.14-1.4-6.21c-.9-.17-4.3-2.5-5.86-3.17-3.16-1.58-2.4-1.58-3.89-4.48-1.11-2.18-2-4.48-3-6.73-1.58-3.45-.71-3.44-4.29-4.75-4-1.44-2.84-1.06-6.34-2.26-3.7-1.29-2.8-.8-6.25,1l-1.27.66,3.48,5.24a8,8,0,0,1,3,.56"/><path class="cls-1" d="M96.82,49.49A21.59,21.59,0,0,1,100,47.77c3.31-1.59,2.42-1.44,5.94-.38l7,2.09c3.7,1.12,4.6,0,8.28-1.32h.14c3.58-1.26,4.31-.88,6.34-4l.8-1.21L122.84,40c-.52.32-1.24.44-2.91,1.14-1.4.57-1.89.73-3.06,1.12-3.39,1.18-2.44,1.32-5.91.32l-7.09-2c-3.64-1-2.36-1.7-5.8,0-1.87.88-4.48,2.52-6.33,3.61-3.44,2-2.55,1.69-3.38,5.48L88.08,51l6.13.74c.27-.6.84-1,2.48-2.09"/><path class="cls-1" d="M39,121.79l5.18-3.38c-.17-.63,0-1.25.57-3.16a19.64,19.64,0,0,1,1.08-3.36c1.49-3.34.9-2.69,4.26-4.18l6.66-2.95c3.55-1.58,3.5-3,5.44-6.41l.07-.13c1.89-3.29,2.68-3.47,2.21-7.22l-.18-1.44L58.08,91c-.19.59-.65,1.14-1.47,2.77-.68,1.33-1,1.78-1.58,2.84-1.82,3.16-1,2.58-4.29,4.08L44,103.76c-3.44,1.59-2.89.26-4.45,3.73-1,2.2-1.38,4.43-2.19,6.73-1.33,3.77-.87,2.93,1,6.33Z"/><path class="cls-1" d="M264.61,92.09l1.77,3.17c1.59,3.33,1.41,2.46.32,5.95-.73,2.33-1.58,4.6-2.2,7s-.84,2.68.54,6.34v.16h-.13c1.06,4.11,1.14,6.33,4.64,8.69l1.27.86,2.91-5.66c-.84-1-1.58-4.75-2.23-6.33-1.49-3.27-.84-2.7,0-5.94.62-2.38,1.42-4.75,2.14-7,1.09-3.63,1.71-3.07-.16-6.33-2.09-3.73-1.44-2.66-3.27-5.8-1.94-3.39-1.58-2.44-5.36-3.36-.46-.12-.92-.22-1.4-.33l-.79,6.24c.55.33.9.92,1.93,2.42"/><path class="cls-1" d="M272.16,108.53c1.33,1,2.24,5,2.65,6.61.92,3.54,1,2.66-.73,5.92q-1.69,3.16-3.39,6.46c-1.79,3.45-.86,4.54-.25,8.39v.16c.57,3.74,0,4.39,2.77,7l1,1,4-5c-.22-.57-.2-1.28-.58-3.07-.29-1.47-.35-2-.53-3.17-.5-3.55-.82-2.64.81-5.86l3.33-6.57c1.72-3.39,2.1-2,1.17-5.68-.52-2.06-1.58-5-2.31-7.1-1.32-3.77-1.16-2.83-4.75-4.39l-1.29-.57Z"/><path class="cls-1" d="M249.71,66.47l.17,6.18c.62.17,1.06.68,2.42,2.15a19.74,19.74,0,0,1,2.32,2.68c2.07,3,1.82,2.17,1.33,5.81-.32,2.41-.64,4.75-1,7.22-.51,3.85.74,4.56,2.63,7.92v.12c1.84,3.33,1.58,4.11,5,5.67l1.33.61,2-6.07c-.39-.46-.63-1.14-1.58-2.69-.77-1.27-1-1.73-1.58-2.84-1.7-3.16-1.68-2.2-1.25-5.78.3-2.44.58-4.87.88-7.31.46-3.77,1.3-2.6-.85-5.75-1.36-2-3-3.5-4.58-5.39-2.53-3.16-2.06-2.26-5.94-2.51Z"/><path class="cls-1" d="M35.36,143.47l4.5-4.39a8.05,8.05,0,0,1,0-3.17l.58-3.61c.89-3.55.41-2.79,3.47-4.84,2-1.35,4.13-2.59,6.05-4.07s2.33-1.59,3.53-5.29,2.79-5.5,1.59-9.51l-.45-1.47-5.79,2.62c0,.31-1.59,5.19-1.79,6-.87,3.49-1,2.65-3.68,4.76-1.95,1.48-4,2.78-6,4.18-3.16,2.17-3.26,1.34-3.86,5.1-.67,4.21-.52,3-1.06,6.57-.57,3.86-.27,2.9,2.12,6,.28.38.59.74.89,1.12"/><path class="cls-1" d="M160,47.29A106.11,106.11,0,1,0,266.11,153.4v-.08A106.1,106.1,0,0,0,160,47.29m0,209.65a103.56,103.56,0,1,1,.08,0Z"/><path class="cls-1" d="M248.11,183.11,246,188.38a4,4,0,0,1-1,1.44,4.27,4.27,0,0,1-2.81,1.3,5.37,5.37,0,0,1-1.58-.33l-6.07-2.41c4.76-11.89,8.45-20.59,8.1-34.11h-.56a4.13,4.13,0,0,1-1.58-.35,3.85,3.85,0,0,1-2.28-2.19,4.09,4.09,0,0,1-.32-1.58v-2.53l3.17-.08v2.51a.86.86,0,0,0,.25.61.78.78,0,0,0,.62.22h.55l-.19-7.27,6.53-.16a5.37,5.37,0,0,1,1.58.33,6.09,6.09,0,0,1,1.43.91,4.74,4.74,0,0,1,1.28,2.85v2.23a3.56,3.56,0,0,1-.33,1.58,3.92,3.92,0,0,1-.86,1.37,4,4,0,0,1-1.33.93,3.64,3.64,0,0,1-1.58.41l-3.26.08c.15,6.11-.75,9.5-1.92,16l2.3.41a.94.94,0,0,0,.47,0,.8.8,0,0,0,.49-.68l1.59-9.26,5.13.92a3.93,3.93,0,0,1,1.58.65,3.66,3.66,0,0,1,1.14,1,5.43,5.43,0,0,1,.67,1.59,3.82,3.82,0,0,1,0,1.58l-2.49,11.86-3.17-.58,2.49-11.85a1.29,1.29,0,0,0,0-.48.75.75,0,0,0-.25-.38.89.89,0,0,0-.4-.2l-1.84-.33-1.07,6.05a4.67,4.67,0,0,1-1.7,2.62,7.08,7.08,0,0,1-1.58.67,4.25,4.25,0,0,1-1.59,0l-2.28-.4a114.92,114.92,0,0,1-4.64,13.13l3,1.19a.86.86,0,0,0,.39,0l.48-.22a.8.8,0,0,0,.25-.4l2.57-6.51Zm.68-45.82-.52-2.93a1.1,1.1,0,0,0-.53-.76.94.94,0,0,0-.47,0l-3.17.57.68,3.85ZM224,88.5l-2.2-2.12a.8.8,0,0,0-.35-.19.73.73,0,0,0-.86.22l-2.24,2.36,2.83,2.69Zm2.17,13.81a101.32,101.32,0,0,0-12.43-13.43l4.5-4.75a4.59,4.59,0,0,1,1.28-.95,5.06,5.06,0,0,1,1.58-.37,3.62,3.62,0,0,1,1.59.29,3.81,3.81,0,0,1,1.4.82l4.5,4.4-5.13,5.39a44.17,44.17,0,0,1,4.93,6.22h0l.3.43.12.16h0l3,4.21h0l2.48,3.88h0l.21.41v.1h0l2.09,4.1h0l2.12,4.75h0l.22.55v.12h0c1.41,3.61,3.44,9,4.33,12.4l3.16-.57a3.87,3.87,0,0,1,1.59,0,6.08,6.08,0,0,1,1.58.66,3.31,3.31,0,0,1,1.06,1.14,3.82,3.82,0,0,1,.67,1.58l1.11,6.23L241.91,142a95.73,95.73,0,0,0-4.45-18.12h0l-1.58-4-2-4.39h0l-2.41-4.75-3-4.75h0Zm3.29-16.09-2.09-2,2.05-2.15,2.09,2Zm-2.93-2.65-2.09-2,2.06-2.16,2.09,2Zm-18.26,1.24-2.66-1.89,9.13-12.82L217.42,72Zm-12.4-15.57-2-.93a1.47,1.47,0,0,0-.46-.11.88.88,0,0,0-.65.53l-1.34,3L195,73.3l1.34-3a.84.84,0,0,0,0-.84,1.28,1.28,0,0,0-.43-.3Zm8.29,12.67c-2.59-1.47-4.91-3.06-7.49-4.23l-.24.51a3.63,3.63,0,0,1-1,1.3,4,4,0,0,1-2.95,1.11,4.6,4.6,0,0,1-1.58-.4l-2.31-1,1.34-3,2.4,1a.91.91,0,0,0,.65,0,.88.88,0,0,0,.47-.46l.22-.51-6.62-3,2.68-5.94a5.89,5.89,0,0,1,1-1.28,6.16,6.16,0,0,1,1.42-.89,3.33,3.33,0,0,1,1.59-.24,3.47,3.47,0,0,1,1.58.32l2,.92a3.49,3.49,0,0,1,1.29,1,3.27,3.27,0,0,1,.85,1.34,4,4,0,0,1,.27,1.59,3.45,3.45,0,0,1-.32,1.58l-1.33,3a43.67,43.67,0,0,1,4.91,2.63l6.18-10.76,2.91,1.68ZM122.06,66l4.52-1.77a4,4,0,0,1,1.68-.27,4.18,4.18,0,0,1,2.86,1.17,4.06,4.06,0,0,1,.86,1.38l1.2,3c14.6-5.74,34.7-4.13,49.66-.68l.73-3.16a.81.81,0,0,0,0-.38,3.52,3.52,0,0,0-.28-.46.86.86,0,0,0-.45-.24L176,63l2-2.89,5.52,1.29a3.63,3.63,0,0,1,1.59.74,4.11,4.11,0,0,1,1.71,2.58,5,5,0,0,1-.1,1.59l-1.47,6.33c-24.1-5.56-37.15-5.62-60.18,3.47l-1.2-3,6.33-2.46-1.25-3a1.33,1.33,0,0,0-.71-.52,1,1,0,0,0-.46.07l-4.53,1.79Zm1.35,10.85L114.27,82,111,76.34a4.45,4.45,0,0,1,.36-4.63,3.65,3.65,0,0,1,1.17-1.11l5.5-3.16Zm-6.51-4.75-2.66,1.58a.8.8,0,0,0-.47.7.69.69,0,0,0,0,.49l1.58,2.84,3.48-2Zm-.9-5.73-2.5,1.44L112,65.2l2.49-1.44Zm-3.41,2-2.5,1.44-1.47-2.58,2.5-1.44ZM108.78,86l-2.57,2-9.74-12.4,2.57-2Zm-4,3.17c-2.79,2.65-7.68,6.86-9.64,9.61l.44.34a3.55,3.55,0,0,1,1.08,1.23,3.83,3.83,0,0,1,.52,3.17,4.74,4.74,0,0,1-.68,1.46l-1.47,2-2.65-1.9,1.46-2a.81.81,0,0,0,.16-.64.86.86,0,0,0-.35-.54l-.46-.31L89,107.33l-5.32-3.77a6.67,6.67,0,0,1-1.07-1.24,6.29,6.29,0,0,1-.6-1.58,3.51,3.51,0,0,1,0-1.58,3.56,3.56,0,0,1,.6-1.51l1.3-1.82a3.66,3.66,0,0,1,1.22-1.06,3.56,3.56,0,0,1,1.49-.59,3.87,3.87,0,0,1,1.59,0,3.46,3.46,0,0,1,1.5.61l2.66,1.88a67.45,67.45,0,0,1,7.57-7.92l-8.55-9,2.42-2.31ZM86.72,97.83l-1.3,1.82a1.33,1.33,0,0,0-.19.42.81.81,0,0,0,.39.75l2.66,1.88,2.27-3.16-2.72-1.89a.86.86,0,0,0-.83-.12A1.15,1.15,0,0,0,86.72,97.83ZM79.16,109.4l-2,4.42a.77.77,0,0,0,0,.37,3,3,0,0,0,.19.5l2.85,2.52,3.17-6.89-3-1.35a.91.91,0,0,0-.65,0,.85.85,0,0,0-.57.46ZM66.49,127.19l-.65,2.8L63,129.32l.65-2.8Zm15,14L81.27,144l-3-.24.22-2.87Zm-.28,3.62L81,147.66l-3-.23.22-2.89ZM84,188.25,78,190.64a4.57,4.57,0,0,1-1.58.34,5.42,5.42,0,0,1-1.59-.37,3.55,3.55,0,0,1-1.27-.9,3.63,3.63,0,0,1-.93-1.35l-2.31-5.87,6.92-2.74C74,171.83,72,153.86,72.64,145.32l-6.89-.55.25-3.35,6.89.56c1.14-4,1.39-5.86,2.2-9.63l-7.17-1.58.76-3.25,7.17,1.58a38.32,38.32,0,0,1,2.76-8.47L67.24,115.5l1.33-3L73.9,115c0-.22,0-.43,0-.64a3.46,3.46,0,0,1,.31-1.79l2-4.43a5.34,5.34,0,0,1,.94-1.41,4.23,4.23,0,0,1,2.91-1,3.45,3.45,0,0,1,1.58.32l5.94,2.67C73.83,139.11,71.81,157.28,84,188.28Zm-9.5-4,1.13,2.84a.5.5,0,0,0,.22.31.71.71,0,0,0,.87.16l3-1.18-1.42-3.63Zm-5.9-.22,1.06,2.68-2.77,1.09-1.07-2.69Zm1.44,3.64,1.06,2.68-2.77,1.09-1.06-2.67Zm179.85-37.86v-2.23a1.39,1.39,0,0,0-.09-.46.89.89,0,0,0-.78-.37l-3.17.08.1,3.93,3.26-.08a.88.88,0,0,0,.75-.4,1.32,1.32,0,0,0,0-.44Z"/><path class="cls-1" d="M200.79,225l1.77-1.15a3.78,3.78,0,0,1,1.58-.58,3.29,3.29,0,0,1,1.59,0,5.33,5.33,0,0,1,1.58.65,4,4,0,0,1,1.08,1.14l3.78,5.81a3.71,3.71,0,0,1,.62,1.46,4.23,4.23,0,0,1-.63,3,4,4,0,0,1-1.14,1.08l-2.08,1.36-1.75-2.68,2.07-1.36a.71.71,0,0,0,.3-.54.54.54,0,0,0,0-.6l-.28-.46-6,3.9-3.5-5.34a3.24,3.24,0,0,1-.54-1.5,3.56,3.56,0,0,1,0-1.59,3.18,3.18,0,0,1,.58-1.41A4.35,4.35,0,0,1,201,225m3.57,1.58-1.76,1.15a.86.86,0,0,0-.43.72.61.61,0,0,0,.11.47l1.75,2.68,3.29-2.15-1.74-2.68a.83.83,0,0,0-.35-.32,1.08,1.08,0,0,0-1.11.14Zm2.85-5.62,3.63-3.09a4.25,4.25,0,0,1,1.47-.78,3.57,3.57,0,0,1,3,.22,3.83,3.83,0,0,1,1.3.95l4.15,4.88-7.46,6.34-2.08-2.43,5-4.27-2.07-2.44a1.37,1.37,0,0,0-.82-.27,1.1,1.1,0,0,0-.42.24l-3.61,3.09Z"/><path class="cls-1" d="M170.82,239.06l-3,.36a.82.82,0,0,0-.37.13.75.75,0,0,0-.36.79l.39,3.17,3.81-.46Zm3.66,3.59c6.21-.76,17.14-4.67,22.55-7.41l-5.46-10.85,2.93-1.47,6.95,13.78c-14.08,7.09-21.71,8.53-36.72,10.37l-.78-6.34a4.2,4.2,0,0,1,0-1.58,5.46,5.46,0,0,1,.73-1.47,3.81,3.81,0,0,1,1.17-1,3.89,3.89,0,0,1,1.51-.56l6.16-.74Z"/><rect class="cls-1" x="169.5" y="230.71" width="2.82" height="2.91" transform="translate(-27.02 22.56) rotate(-7)"/><rect class="cls-1" x="165.68" y="231.24" width="2.82" height="2.91" transform="translate(-27.11 22.1) rotate(-7)"/><path class="cls-1" d="M140.32,249.86l-2.74-.65.65-2.84L141,247Zm-3.45-.81-2.77-.65.66-2.83,2.78.64ZM125,245.88l-2.63-1,1.08-2.71,2.62,1Zm-11.09-5.59-2.44-1.42,1.48-2.52,2.43,1.42Zm-3-1.79-2.43-1.31,1.48-2.52,2.45,1.44ZM158,247c-25.15-.75-42.62-8.73-60.35-24.15l10.12-11.64,2.42,2.09-8,9.23a80.4,80.4,0,0,0,11.65,8.53l3.65-6.22,2.83,1.58-3.64,6.24a64.37,64.37,0,0,0,8.63,4.22l2.68-6.7,3,1.2-2.68,6.72A67.08,67.08,0,0,0,137.5,241l1.59-7,3.17.74-1.59,7a69.39,69.39,0,0,0,14.13,1.81l.36-12.15,3.28.1Z"/><path class="cls-2" d="M84,202.63l3.93-2.85a1,1,0,0,1,1.33.22l2.84,3.93a1,1,0,0,1-.21,1.33h0L88,208.1a1,1,0,0,1-1.33-.21l-2.83-4a.91.91,0,0,1,.17-1.29l0,0"/><path class="cls-2" d="M235.11,202.63l-3.93-2.85a1,1,0,0,0-1.33.22L227,203.93a1,1,0,0,0,.21,1.33l3.94,2.84a1,1,0,0,0,1.32-.21l2.85-3.94a.94.94,0,0,0-.21-1.31h0"/><polygon class="cls-1" points="187.25 135.63 194.78 146.78 207.99 142.53 199.73 153.16 207.84 164.4 195.18 159.83 186.99 171.02 187.44 157.56 174.26 153.24 187.2 149.5 187.25 135.63"/><path class="cls-1" d="M158.82,186.15a32.83,32.83,0,1,1,25-54,39.05,39.05,0,1,0,0,42.43,32.78,32.78,0,0,1-25,11.61"/></svg>