<svg xmlns="http://www.w3.org/2000/svg" width="163.779" height="58.774" viewBox="0 0 163.779 58.774"><g transform="translate(0 0)"><path d="M353.1,411.556c-3.672,4.216-7.068,10.467-2.654,15.243-2.223,4.668-1.826,8.309-.024,10.649,2.423,3.155,5.841,2.744,9,1.45a25.408,25.408,0,0,0,6.418-3.685c1.607-1.3,4.569-4.225,3.32-6.521-.717-1.316-2.356-.762-4.324-.846-4.187-.171-2.984-2.182-1.33-4.179,1.249-.815,2.632-1.653,3.462.164l1.061-3.095c-2.5-1.54-3.978-.022-5.28,1.51-3.065,3.619-3.791,9.794,3.411,8.42.98-.189,1.9.224,1.047,1.292a8.484,8.484,0,0,1-2.528,1.645,41.11,41.11,0,0,1-6.216,2.759c-2.318.786-4.613,1.033-6.611-.747-2.281-2.042-1.877-4.464-.776-8.817.238-.267.463-.5.673-.709,1.369-1.383,2.056-1.7,2.408-4.373.2-1.548-.1-2.281-.755-.18-.629,2.026-2.2,3.208-3.239-.007-1.017-3.177,1.278-6.655,3.089-9.368.418-.651.942-1.861-.15-.606" transform="translate(-348.359 -402.138)" fill="#211e1f" fill-rule="evenodd"/><path d="M402.484,402.7c-.158-.232-.263.8-.366,1.084-.531,1.45-1.519,1.323-1.885-.253-.322-1.407.943-3.149,1.362-4.531.471-1.586.754-3.455,1.077-4.323a1.586,1.586,0,0,1,.6-.739c.263-.172.435-.112.524.336l.112.425c.18.719.061.66.659.218.389-.276.322-.186.2-.673a6.449,6.449,0,0,0-.47-1.4l-.24-.53c-.562-1.226-1.122-1.278-1.466.119-.224.9-.4,1.779-.576,2.73-.538-1.01-1.077-1.99-1.631-2.976-.277-.485-.4-.755-.845-.3-.426.449-.786.838-.629,1.509s.741.734,1.422,1.788c1.1,1.7,1.076,2.751-.082,5.107a5.8,5.8,0,0,0-.779,3.356c.524,3.657,2.948,3.268,3.209.471a2.09,2.09,0,0,0-.194-1.421" transform="translate(-391.278 -385.468)" fill="#211e1f" fill-rule="evenodd"/><path d="M366.172,608.33l-1.481,2.393,3.247,2.467,1.5-1.943,2.324,1.3,1.744-2.572-3.222-2.094-1.557,2.078Z" transform="translate(-362.236 -569.418)" fill="#211e1f" fill-rule="evenodd"/><path d="M490.507,484.845c-.224-.074-.179-.007-.4.315a1.558,1.558,0,0,0-.344.971c.029.337.224.479.582.846a9.44,9.44,0,0,1,1.362,1.554,6.128,6.128,0,0,1,.246.756c.113.4.359.269.382-.359s.045-2.025.457-2.453c.261-.276.59-.276.956.165.195.232.209.268.2-.165l-.022-1.3c-.006-.343.015-.313-.254-.561-1.443-1.271-.838,2.274-1.989,2.153-.1-.007-.1-.075-.195-.351-.2-.584-.545-1.421-.98-1.57" transform="translate(-468.502 -464.444)" fill="#211e1f" fill-rule="evenodd"/><path d="M491.489,440.451l-1.122,2.9-3.434-2.338.958-2.64Z" transform="translate(-466.104 -425.389)" fill="#211e1f" fill-rule="evenodd"/><path d="M433,393.236l-7.255,1.055,10.493-6.58,1.182-.741a36.784,36.784,0,0,0,3.59-3.019c2.43-2.415,1.615-3.425.366-6.34l-.464-1.054,1.054-2.639.524.717a4.029,4.029,0,0,0,6.955.912c1.159-1.361-1.01-2.759-2.079-3.432-4.524-2.871-5.137-4.374-8.369-7.731l.667-3.791c4.292-2.572,9.871-5.928,14.62-7.424,3.672-1.159,5.452-1.982,5.393.157-.075,2.879-3.1,7.933-4.451,10.632,2.514-6.863,6.649-11.05-2.265-7.79a60.54,60.54,0,0,0-11.847,6.01l2.437,2.042c-1.3.329-1.951.24-1.368.748.919.8,2.042,1.592,3.013,2.356l2.5,2.07a14.18,14.18,0,0,1,2.049,1.847c1.436,1.817,1.548,2.885,1.123,4.313-1.228,4.061-3.269,4-6.852,4.1.172,3.409-2.162,5.622-1.667,8.03a4.948,4.948,0,0,0,2.145,3.1c2.559,1.653,5.811.531,8.72-1.249a20.168,20.168,0,0,0,6.568-5.794l-.6-1.713-1.518-2.84.793-2.7c2.005,3.1,2.535,2.968,6.073,2.109l-1.72-19.059-.726-1.45,1.055-2.7,3.633,6.987-.335.131-2.043-.92,1.518,16.083a7.152,7.152,0,0,1,2.835-1.13c2.917.336,2.364,4.15.657,6.8-1.667,2.6-2.586,1.779-4.285-2.309a11.439,11.439,0,0,1-4.419.724c.1,5.241-1.706,6.587-6.118,9.586-3.77,2.571-8.586,4.724-11.72,1.4-1.3-1.376-1.474-2.863-1.669-6.049ZM468.784,379.4a1.3,1.3,0,0,0-1.563,0c-.778.65-.322,1.682.435,2.168,1.39.891,2.661-1.292,1.129-2.168" transform="translate(-414.111 -351.998)" fill="#211e1f" fill-rule="evenodd"/><path d="M586.315,534.9c-1.182,1.892-2.318,3.461-2.042,5.466.283,2.056,1.114,2.219,1.892,1.555,1.091-.934,1.054-1.923,1.255-3.238a5.234,5.234,0,0,1-.694,1.257c-1.907,1.922-1.885-.614-1.295-2.489a12.965,12.965,0,0,1,1.13-2.213c.382-.674.621-1.72-.246-.337" transform="translate(-548.776 -506.83)" fill="#211e1f" fill-rule="evenodd"/><path d="M695.654,427.821a5.742,5.742,0,0,0-.547,4.785c.7,1.868,2.439,1.2,2.267-1.295-1.34,2.976-3.433-.313-.733-4.425.86-1.309.359-1.7-.987.934" transform="translate(-642.724 -414.763)" fill="#211e1f" fill-rule="evenodd"/><path d="M593.2,435.839l-.038-.449c.837.605,2.1,1.173,2.229,2.31a3.247,3.247,0,0,1-.554,1.885c-.32.582-.762.964-1.547.522-.457-.253-.621-.762-.569-1.614.052-1.025.569-1.5.478-2.654m.509,1.495c-.038.186-.074.329-.112.47-.112.442-.1.868.179,1,.538.255.643-.12.643-.508,0-.605-.165-.748-.71-.965" transform="translate(-555.978 -422.855)" fill="#211e1f" fill-rule="evenodd"/><path d="M636.26,583.554c-.133-.576-.516-.561-1.457-.172-.636.268-.882.627-1.6,1.488a11.861,11.861,0,0,1-4.659,3.274,21.9,21.9,0,0,1-2.162.763l-4.263,1.264,1.563-.075a13.952,13.952,0,0,0,3.357-.613,11,11,0,0,0,6.538-4.24c.544.657,1.308,2.011,2.116.846a4.577,4.577,0,0,0,.47-.988,2.546,2.546,0,0,0,.1-1.547m-.964,1.631c-.2.045-.39-.225-.554-.479-.225-.337-.165-.455.2-.463.389-.015.59-.067.614.336.007.263-.015.554-.261.607" transform="translate(-580.966 -548.365)" fill="#211e1f" fill-rule="evenodd"/><path d="M1326.586,588.617c2.491-.367,7.008-.941,8.945-2.535a7.68,7.68,0,0,0,.913-1.084c.764-.926,2.6-1.533,2.856-.037a1.651,1.651,0,0,1-.15,1.263c-.734,1.278-1.234,1.682-2.288.315-.329-.426-.315-.441-.8-.1-2.784,2-4.832,2.6-9.478,2.176m11.108-3.043c.165.255.365.524.56.478.239-.053.261-.351.256-.613-.017-.405-.226-.344-.615-.337-.358.007-.418.127-.2.471" transform="translate(-1179.542 -549.174)" fill="#211e1f" fill-rule="evenodd"/><path d="M716.617,409.556a61.479,61.479,0,0,0-.441-8.472c-.516-3.559-1.032-7.073-1.5-10.632-.308-2.347-.411-4.65-.561-7.013l-.987-1.713,1.316-2.242,3.835,7.371-.274.075-1.848-.987c.577,5.055,1.13,10.094,1.774,15.141.441,3.506.306,4.441-1.31,8.472" transform="translate(-658.294 -375.353)" fill="#211e1f" fill-rule="evenodd"/><path d="M777.137,610.4l-3.067-2.549,1.555-2.767,2.969,2.207,1.616-2.341,3.194,2.6-1.974,2.677-2.939-2.243Z" transform="translate(-710.079 -566.925)" fill="#211e1f" fill-rule="evenodd"/><path d="M861.516,607.865l-3.164-2.535,1.713-2.572,3.493,2.572Z" transform="translate(-781.691 -565.065)" fill="#211e1f" fill-rule="evenodd"/><path d="M919.349,610.8l-3.53-2.789,1.422-3,3.095,2.108,1.354-2.176,4.055,2.573-1.384,2.6-3.74-2.205Z" transform="translate(-830.52 -566.923)" fill="#211e1f" fill-rule="evenodd"/><path d="M831.729,365.453l-20.283,11.275-.958,3.26,20.156-11.372Z" transform="translate(-741.022 -363.43)" fill="#211e1f" fill-rule="evenodd"/><path d="M765.8,367.406l-1.384,3.1,1.384,16.921.344,2.429c.411,3.021.53,4.418,1.854,5.929,1.533,1.748,2.475,2.235,3.926,1.937a6.342,6.342,0,0,0,3.68-2.377c.5-.485.912-1.071,1.166-.314a5.05,5.05,0,0,0,1.5,2.288c1.578,1.24,2.506.785,3.209-.277.418-.636.657-1.084,1.023-1.623.78-1.122,1.042-1.039,1.475-.322a5.413,5.413,0,0,0,2.4,2.258c3.037,1.4,5.677.232,8.071-1.481.748-.537,1.279-1.218,2.079-1.368.538-.09.607-.074.792.352.547,1.316.973,2,1.945,2.183,1.87.359,2.648-1.114,3.643-2.43a14.1,14.1,0,0,0,1.166-9.136c-.733-4.6-1.856-9.2-2.154-13.847l1.355,1.025,1.119.725-3.462-7.715-1.487,2.474,1.226,2.012a2.615,2.615,0,0,0-.27,1.15,145.953,145.953,0,0,0,1.789,14.626c.6,3.086,1.15,7.042-.532,8.021-3.03,1.758-2.73-2.587-2.543-3.917l-3.164,2.242c-4.531,2.5-7.4,4.016-10.469.712-1.93-2.079-2.939-6.2-3.844-8.853l-.659,3.4,1.684,4.089.231.889c-1.285,2.139-2.714,2.79-4.465,1.436-.957-.74-.769-1.922-.912-3.155-1.667,1.219-3.695,3.021-5.773,3.312a2.642,2.642,0,0,1-2.724-1.2,8.934,8.934,0,0,1-1.031-3.565c-.45-2.745-.6-5.938-.853-8.3Z" transform="translate(-701.877 -363.605)" fill="#211e1f" fill-rule="evenodd"/><path d="M802.777,383.461a10.07,10.07,0,0,0-1.025,3.117,6.177,6.177,0,0,0-.053,1.28c.084.867.337,1.435.861,1.622,1.689.612,2.064-1.884,2.274-3-.352.515-1.2,2.264-2.005,1.839a1.056,1.056,0,0,1-.418-.642,3.366,3.366,0,0,1-.067-1.04,15.812,15.812,0,0,1,.433-3.177" transform="translate(-733.543 -378.732)" fill="#211e1f" fill-rule="evenodd"/><path d="M842.179,453.7c-.569,1.091-2.2,5.285-.524,6.04,1.638.741,1.758-1.375,2.057-2.466-.389.494-1.01,1.592-1.772,1.113-.942-.6.007-3.82.239-4.687" transform="translate(-766.879 -438.408)" fill="#211e1f" fill-rule="evenodd"/><path d="M965.69,481.243c-2.036,4.075-.435,8.831,1.2,5.578a9.539,9.539,0,0,0,.462-1.727c-.388.487-.709,1.562-1.473,1.077-.95-.6-.425-4.068-.186-4.928" transform="translate(-872.081 -461.815)" fill="#211e1f" fill-rule="evenodd"/><path d="M1023.41,571.475c-2.85,3.985-1.645,9.144.246,7.9,1.152-.762,1.174-1.982,1.51-3.117-.477.582-.731,1.435-1.8,1.263-1.586-.253-.441-4.815.046-6.041" transform="translate(-920.498 -538.484)" fill="#211e1f" fill-rule="evenodd"/><path d="M1123.334,439.815c-2.856,3.977-1.653,9.144.247,7.9,1.152-.763,1.175-1.98,1.5-3.125-.478.583-.725,1.436-1.8,1.264-1.586-.247-.448-4.808.045-6.034" transform="translate(-1005.397 -426.615)" fill="#211e1f" fill-rule="evenodd"/><path d="M1177.863,570.977c-4.382,3.664-.973,12.337,1.242,4.643-.479.583-.85,1.832-1.878,1.495-1.965-.649.151-4.911.636-6.138" transform="translate(-1051.37 -538.061)" fill="#211e1f" fill-rule="evenodd"/><path d="M1298.953,437.924c-3.534,3.948.247,11.858,1.788,4.4-.478.583-.71,1.689-1.712,1.264-1.369-.584-.562-4.434-.077-5.661" transform="translate(-1154.819 -425.008)" fill="#211e1f" fill-rule="evenodd"/><path d="M803.272,482.094c-.12-3.215-.74-5.518-2.139-6.4l.755-2.205c2.17,2.355,2.731,5.189,1.384,8.606" transform="translate(-733.073 -455.226)" fill="#211e1f" fill-rule="evenodd"/><path d="M914.322,419.83c5.041-2.654,6.785-4.053,8.146-9.092.35-1.323.949-2.152,1.442-.322.194.719.081.771.509.18l.365-.509c.457-.636.263-.583-.066-1.345a20.525,20.525,0,0,0-.949-1.973c-.778-1.391-1.377-.591-1.414.62l-.059,1.787c-.053,1.622-.51,2-1.236.276a9.182,9.182,0,0,0-.613-1.278c-.47-.807-1.061-1.285-1.339.344a5.489,5.489,0,0,0-.066,1.518c1.309.62,1.7.892,1.945,1.786s-.885,2.6-2.274,4.09a38.351,38.351,0,0,1-4.392,3.918" transform="translate(-829.248 -397.911)" fill="#211e1f" fill-rule="evenodd"/><path d="M1348.428,412.066c6.589-2.332,8.085-3.559,9.064-8.726.256-1.345.89-2.617,1.384-.783.194.717.082.776.509.179l.366-.509c.457-.635.263-.583-.074-1.347a19.971,19.971,0,0,0-.944-1.973c-.779-1.391-1.375-.59-1.414.621l-.06,1.787c-.1,2.071-.889,3.215-1.562.972a5.8,5.8,0,0,0-.613-1.286c-.479-.8-1.061-1.278-1.34.351a5.806,5.806,0,0,0-.075,1.519c1.475.687,2.536,1.794,1.751,3.484-.948,2.026-4.157,4.128-6.993,5.712" transform="translate(-1198.101 -391.232)" fill="#211e1f" fill-rule="evenodd"/><path d="M1051.245,377.352c-3.249,4.029-4.4,9.465-2.47,11.482-.306,1.021-1.8,7.312,1.285,10.069a7.544,7.544,0,0,0,4.152,1.824,38.965,38.965,0,0,0-2.918,5.518,11.046,11.046,0,0,0-.807,2.922,6.123,6.123,0,0,0,.607,3.8,3.759,3.759,0,0,0,4.966,1.689c1.3-.509,3.731-3.022,5.818-5.258a19.055,19.055,0,0,1,3.723-3.416,14.518,14.518,0,0,1,3.733-1.861c3.808-1.039,4.778,1.017,7.189,3.529-.743,1.921-1.879,3.947-1.835,5.981,1.039-1.928,1.959-3.919,3.015-5.5,5.4,1.219,11.847,1.854,16.872-1.032a11.911,11.911,0,0,0,3.561-3.245c1.182-1.414.979-.934,1.7.15,1.742,2.609,5,4,6.28.067a5.77,5.77,0,0,0-.6-5.234c-1.33-1.7-3.567-1.2-5.34.853l-1.96,2.281a10.5,10.5,0,0,1-6.693,3.932c-1.353.15-1.876-.089-.262-1.689a7.08,7.08,0,0,0,2.489-4.24,4.235,4.235,0,0,0-2.264-4.336c-1.721-.987-3.986-.425-6.5,1.4-2.783,2.019-4.956,5.18-6.858,7.946-1.249-.547-1.168-.768-2.088-1.762-1.9-2.057-3.321-3.246-6.873-2.072a12.009,12.009,0,0,0-4.683,2.946c-1.256,1.182-2.288,2.362-3.76,3.851-1.871,1.876-3.89,3.647-5.5,4.172a2.46,2.46,0,0,1-2.941-.793,3.553,3.553,0,0,1-.523-2.212,7.077,7.077,0,0,1,.688-2.618,31.09,31.09,0,0,1,3.014-5.592c7.189.135,13.628-.65,20.284-3.723,4.053-1.861,4.66-5.437,2.349-9.653a8.661,8.661,0,0,0-3.747-3.514,2.392,2.392,0,0,0-3.494.838c-.6.831-.741,2-.9,3.709-.2,2.183.4,2.9,3.882,2.52a20.6,20.6,0,0,1,2.514-.18c.853.031,1.211.3,1.7,1.818.414,1.3-1.607,2.018-4.054,2.661-6.086,1.608-11.06,2.924-17.417,2.623a9.214,9.214,0,0,1-4.911-1.308c-2.257-1.443-2.4-3.32-1.8-7.5,1.435-1.212,2.131-1.414,2.692-3.261a7.951,7.951,0,0,0,.3-2.355,10.363,10.363,0,0,1-1.825,2.557c-.754.523-1.359-.408-1.547-2.045-.251-2.328,1.054-4.276,2.066-6.55.159-.361-.055-.485-.291-.192m23.592,11.284c.652-.874-1.767-3.647-3.209-1.965-1.037,1.211.471,2.168,1.781,2.323a1.585,1.585,0,0,0,1.428-.358m4.577,16.839a13.541,13.541,0,0,0,10.688-1.967c1.577-.957,2.535-2.162.7-4.187a3.869,3.869,0,0,0-2.131-1.182c-1.751-.4-6.11,1.83-9.26,7.336m25.489-2.2c.306-.1.269-.232.06-.92a3.114,3.114,0,0,0-1.146-1.756c-.979-.875-1.666-.9-2.525.112-1.738,2.035,2.183,3.021,3.611,2.565" transform="translate(-942.69 -373.402)" fill="#211e1f" fill-rule="evenodd"/><path d="M1159.664,413.372l-3.037-2.669,1.16-2.572,3.2,2.542Z" transform="translate(-1035.131 -399.693)" fill="#211e1f" fill-rule="evenodd"/><path d="M1290.975,368.394l18.271-8.508-2.072,3.162-18.01,8.413Z" transform="translate(-1147.745 -358.7)" fill="#211e1f" fill-rule="evenodd"/><path d="M1116.617,368.348l4.4-2.692c1.63-.994,1.906-1.249-.306-1.51-1.27-.142-2.454-.1-3.882-.135l1.6-2.324,3.567-.1c2.468-.068,3.015-.285,2.484,1.24a6.976,6.976,0,0,1-3.559,3.955,11.963,11.963,0,0,1-4.3,1.563" transform="translate(-1001.135 -360.105)" fill="#211e1f" fill-rule="evenodd"/><path d="M1260.436,355.788c-.536.845-.238,1.278.421,1.824.359.292.553.427.7.569a2.42,2.42,0,0,1,.576,1.8c.014.822-.045.748.7.18a2.858,2.858,0,0,0,1.265-2.423c.17-1.45.92-1.144,1.144.045l.119.666.973-1.63a6.263,6.263,0,0,0-.941-2.122c-.561-.831-1.086-1.16-1.469.62-.118.538-.2,1.039-.3,1.682a2.025,2.025,0,0,1-.867,1.489,3.735,3.735,0,0,1-.575-1.623c-.276-1.159-.809-2.542-1.745-1.077" transform="translate(-1123.1 -353.72)" fill="#211e1f" fill-rule="evenodd"/><path d="M616.392,426.885l-.046,1.7,7.3-6.24-.046-1.652Z" transform="translate(-576.063 -410.365)" fill="#211e1f"/><path d="M505.794,604.083a1.431,1.431,0,0,0,2.458.793c.906-.925.588-1.661.429-2.693-.159.463-.16.972-.409,1.251-1.25,1.4-1.876-.609-1.732-1.427.217-1.235,1.861-4.026.8-2.661,0,0-2.27,2.494-1.547,4.737" transform="translate(-482.008 -561.854)" fill="#211e1f" fill-rule="evenodd"/><g transform="translate(0.36 51.962)"><path d="M356.245,703.813a3.515,3.515,0,0,1-.6.367,3.015,3.015,0,0,1-.7.235,4.121,4.121,0,0,1-.842.08,3.346,3.346,0,0,1-1.336-.263,3.254,3.254,0,0,1-1.759-1.8,3.646,3.646,0,0,1,0-2.662,3.28,3.28,0,0,1,1.773-1.821,3.431,3.431,0,0,1,1.374-.268,4.167,4.167,0,0,1,.823.075,3.369,3.369,0,0,1,.682.212,3.2,3.2,0,0,1,.574.325,4.5,4.5,0,0,1,.5.414l-.743.856a3.712,3.712,0,0,0-.837-.593,2.183,2.183,0,0,0-1.007-.226,2.059,2.059,0,0,0-.87.183,2.154,2.154,0,0,0-.692.5,2.241,2.241,0,0,0-.452.739,2.558,2.558,0,0,0-.16.912,2.6,2.6,0,0,0,.16.917,2.282,2.282,0,0,0,.452.748,2.119,2.119,0,0,0,.692.5,2.06,2.06,0,0,0,.87.183,2.174,2.174,0,0,0,1.035-.23,4.073,4.073,0,0,0,.856-.626l.743.753A4.246,4.246,0,0,1,356.245,703.813Z" transform="translate(-350.755 -697.684)" fill="#231f20"/><path d="M416.275,699.479H412.55v1.693h3.3v1.044h-3.3v1.759h3.773v1.044H411.4v-6.586h4.873Z" transform="translate(-402.286 -698.322)" fill="#231f20"/><path d="M470.383,698.435h1.148v6.586h-.967l-3.624-4.685v4.685h-1.148v-6.586h1.07l3.521,4.554Z" transform="translate(-448.5 -698.322)" fill="#231f20"/><path d="M527.879,705.021h-1.167v-5.513h-2.089v-1.072h5.344v1.072h-2.089Z" transform="translate(-498.489 -698.322)" fill="#231f20"/><path d="M584.99,705.021l-1.623-2.3h-1.453v2.3h-1.148v-6.586H583.7a3.343,3.343,0,0,1,1.021.146,2.22,2.22,0,0,1,.771.414,1.785,1.785,0,0,1,.484.659,2.345,2.345,0,0,1,.052,1.609,1.91,1.91,0,0,1-.325.574,1.957,1.957,0,0,1-.494.423,2.451,2.451,0,0,1-.635.268l1.778,2.493Zm-.378-5.263a1.613,1.613,0,0,0-1.01-.279h-1.689v2.22h1.7a1.514,1.514,0,0,0,.991-.3,1,1,0,0,0,.368-.813A.983.983,0,0,0,584.613,699.758Z" transform="translate(-546.191 -698.322)" fill="#231f20"/><path d="M641.646,704.754h-1.223l-.668-1.59h-3.114l-.677,1.59h-1.186l2.9-6.633h1.073Zm-3.453-5.25-1.129,2.634h2.267Z" transform="translate(-592.085 -698.055)" fill="#231f20"/><path d="M700.433,698.435h1.148v5.541h3.462v1.044h-4.61Z" transform="translate(-647.87 -698.322)" fill="#231f20"/><path d="M787.511,698.887a1.479,1.479,0,0,1,.582,1.235,1.681,1.681,0,0,1-.079.537,1.533,1.533,0,0,1-.205.41,1.46,1.46,0,0,1-.3.306,2.518,2.518,0,0,1-.35.226,3.293,3.293,0,0,1,.528.24,1.7,1.7,0,0,1,.412.324,1.309,1.309,0,0,1,.267.446,1.75,1.75,0,0,1,.094.6,1.684,1.684,0,0,1-.174.78,1.593,1.593,0,0,1-.493.568,2.294,2.294,0,0,1-.77.348,3.96,3.96,0,0,1-1,.117h-3.043v-6.586h2.949A2.507,2.507,0,0,1,787.511,698.887Zm-.9,2.11a.763.763,0,0,0,.338-.686.741.741,0,0,0-.3-.629,1.41,1.41,0,0,0-.858-.222h-1.66v1.759h1.575A1.613,1.613,0,0,0,786.608,701Zm.367,2.767a.773.773,0,0,0,.338-.682.76.76,0,0,0-.333-.659,1.775,1.775,0,0,0-1.018-.235h-1.829V704h1.914A1.628,1.628,0,0,0,786.975,703.765Z" transform="translate(-718.013 -698.322)" fill="#231f20"/><path d="M843.8,704.754h-1.223l-.668-1.59H838.8l-.677,1.59h-1.185l2.9-6.633h1.073Zm-3.453-5.25-1.129,2.634h2.267Z" transform="translate(-763.855 -698.055)" fill="#231f20"/><path d="M907.181,698.435h1.148v6.586h-.967l-3.624-4.685v4.685H902.59v-6.586h1.07l3.521,4.554Z" transform="translate(-819.64 -698.322)" fill="#231f20"/><path d="M970.377,705.021h-1.4l-2.249-2.963-1.026,1.054v1.91h-1.147v-6.586H965.7v3.312l3.133-3.312h1.421l-2.738,2.832Z" transform="translate(-872.289 -698.322)" fill="#231f20"/><path d="M1058.432,702.4a3.314,3.314,0,0,1-.715,1.087,3.433,3.433,0,0,1-2.484,1.011,3.524,3.524,0,0,1-1.392-.268,3.269,3.269,0,0,1-1.788-1.811,3.543,3.543,0,0,1,0-2.634,3.307,3.307,0,0,1,.715-1.087,3.429,3.429,0,0,1,2.484-1.011,3.526,3.526,0,0,1,1.392.268,3.268,3.268,0,0,1,1.787,1.811,3.543,3.543,0,0,1,0,2.634Zm-1.124-2.206a2.306,2.306,0,0,0-.461-.748,2.2,2.2,0,0,0-.71-.508,2.276,2.276,0,0,0-1.8,0,2.126,2.126,0,0,0-.7.5,2.293,2.293,0,0,0-.457.743,2.588,2.588,0,0,0,0,1.816,2.3,2.3,0,0,0,.461.748,2.188,2.188,0,0,0,.71.508,2.277,2.277,0,0,0,1.8,0,2.128,2.128,0,0,0,.7-.5,2.293,2.293,0,0,0,.456-.743,2.583,2.583,0,0,0,0-1.816Z" transform="translate(-946.42 -697.684)" fill="#231f20"/><path d="M1124.348,699.479H1120.6v1.816h3.321v1.044H1120.6v2.681h-1.148v-6.586h4.892Z" transform="translate(-1003.907 -698.322)" fill="#231f20"/><path d="M1204.324,698.435h1.148v5.541h3.462v1.044h-4.61Z" transform="translate(-1076.018 -698.322)" fill="#231f20"/><path d="M1257.17,698.435v6.586h-1.148v-6.586Z" transform="translate(-1119.945 -698.322)" fill="#231f20"/><path d="M1292.466,698.887a1.479,1.479,0,0,1,.582,1.235,1.675,1.675,0,0,1-.08.537,1.52,1.52,0,0,1-.2.41,1.458,1.458,0,0,1-.3.306,2.541,2.541,0,0,1-.35.226,3.289,3.289,0,0,1,.528.24,1.7,1.7,0,0,1,.412.324,1.31,1.31,0,0,1,.267.446,1.753,1.753,0,0,1,.094.6,1.682,1.682,0,0,1-.174.78,1.592,1.592,0,0,1-.493.568,2.3,2.3,0,0,1-.77.348,3.961,3.961,0,0,1-1,.117h-3.043v-6.586h2.949A2.507,2.507,0,0,1,1292.466,698.887Zm-.9,2.11a.764.764,0,0,0,.338-.686.74.74,0,0,0-.3-.629,1.409,1.409,0,0,0-.858-.222h-1.66v1.759h1.575A1.614,1.614,0,0,0,1291.563,701Zm.367,2.767a.772.772,0,0,0,.338-.682.76.76,0,0,0-.333-.659,1.775,1.775,0,0,0-1.018-.235h-1.829V704H1291A1.627,1.627,0,0,0,1291.93,703.765Z" transform="translate(-1147.065 -698.322)" fill="#231f20"/><path d="M1343.045,705.021h-1.167v-2.6l-2.615-3.989h1.364l1.844,2.917,1.863-2.917h1.327l-2.615,3.961Z" transform="translate(-1190.673 -698.322)" fill="#231f20"/><path d="M1397.327,704.754H1396.1l-.668-1.59h-3.114l-.677,1.59h-1.185l2.9-6.633h1.073Zm-3.453-5.25-1.129,2.634h2.267Z" transform="translate(-1234.174 -698.055)" fill="#231f20"/></g></g></svg>